%FSLAX24Y24*%
%MOIN*%
G70*
G01*
G75*
G04 Layer_Color=8388736*
%ADD10C,0.0500*%
%ADD11R,0.0354X0.0276*%
%ADD12R,0.1063X0.1063*%
%ADD13O,0.0098X0.0315*%
%ADD14O,0.0315X0.0098*%
%ADD15C,0.0100*%
%ADD16C,0.0200*%
%ADD17C,0.0394*%
%ADD18R,0.0591X0.0512*%
%ADD19O,0.0866X0.0236*%
%ADD20C,0.0098*%
%ADD21C,0.0079*%
%ADD22C,0.0050*%
%ADD23C,0.0600*%
%ADD24R,0.0454X0.0376*%
%ADD25R,0.1163X0.1163*%
%ADD26O,0.0198X0.0415*%
%ADD27O,0.0415X0.0198*%
D23*
X12100Y16200D02*
D03*
X14150Y16900D02*
D03*
X15100Y12350D02*
D03*
X12150Y12550D02*
D03*
X13150Y16450D02*
D03*
Y15600D02*
D03*
X12950Y17250D02*
D03*
X11950Y13300D02*
D03*
X15150Y14550D02*
D03*
D24*
X15050Y13945D02*
D03*
Y13355D02*
D03*
D25*
X13550Y13950D02*
D03*
D26*
X13156Y14737D02*
D03*
X13353D02*
D03*
X13550D02*
D03*
X13747D02*
D03*
X13944D02*
D03*
Y13163D02*
D03*
X13747D02*
D03*
X13550D02*
D03*
X13353D02*
D03*
X13156D02*
D03*
D27*
X14337Y14344D02*
D03*
Y14147D02*
D03*
Y13950D02*
D03*
Y13753D02*
D03*
Y13556D02*
D03*
X12763D02*
D03*
Y13753D02*
D03*
Y13950D02*
D03*
Y14147D02*
D03*
Y14344D02*
D03*
M02*
